<svg width="9" height="9" viewBox="0 0 9 9" fill="none" xmlns="http://www.w3.org/2000/svg">
<path d="M4.18265 0.422683C4.2443 0.232957 4.51271 0.232958 4.57435 0.422683L5.44189 3.09268C5.46946 3.17753 5.54853 3.23497 5.63774 3.23497H8.44514C8.64463 3.23497 8.72757 3.49025 8.56618 3.6075L6.29495 5.25765C6.22277 5.31009 6.19257 5.40304 6.22014 5.48789L7.08767 8.15788C7.14932 8.34761 6.93217 8.50538 6.77078 8.38812L4.49955 6.73797C4.42737 6.68553 4.32964 6.68553 4.25746 6.73797L1.98623 8.38812C1.82484 8.50538 1.60769 8.34761 1.66933 8.15788L2.53687 5.48789C2.56444 5.40304 2.53424 5.31009 2.46206 5.25765L0.190826 3.6075C0.029436 3.49025 0.11238 3.23497 0.311869 3.23497H3.11927C3.20848 3.23497 3.28755 3.17753 3.31512 3.09268L4.18265 0.422683Z" fill="#F1CC4A"/>
</svg>
